<?xml version="1.0" standalone="no"?>
<!DOCTYPE svg PUBLIC "-//W3C//DTD SVG 20010904//EN"
 "http://www.w3.org/TR/2001/REC-SVG-20010904/DTD/svg10.dtd">
<svg version="1.0" xmlns="http://www.w3.org/2000/svg"
 width="700.000000pt" height="700.000000pt" viewBox="0 0 700.000000 700.000000"
 preserveAspectRatio="xMidYMid meet">
<metadata>
Created by potrace 1.14, written by Peter Selinger 2001-2017
</metadata>
<g transform="translate(0.000000,700.000000) scale(0.100000,-0.100000)"
fill="#000000" stroke="none">
<path d="M3898 6715 c-2 -2 -32 -6 -68 -9 -136 -13 -163 -18 -355 -69 -5 -1
-14 -5 -20 -8 -5 -4 -28 -12 -50 -19 -67 -21 -195 -91 -275 -151 -112 -84
-215 -195 -280 -304 -13 -22 -26 -42 -29 -45 -12 -10 -31 -50 -31 -64 0 -8 -4
-16 -9 -18 -18 -7 -120 -283 -135 -368 -2 -14 -5 -25 -6 -25 -2 0 -8 -26 -25
-122 -3 -16 -7 -39 -10 -53 -13 -63 -17 -87 -20 -110 -2 -14 -4 -25 -5 -25 -1
0 -3 -11 -5 -25 -2 -23 -7 -52 -20 -125 -22 -118 -38 -202 -40 -216 -2 -9 -6
-32 -9 -50 -3 -19 -8 -45 -11 -59 -3 -14 -7 -47 -10 -75 -3 -27 -8 -68 -10
-90 -19 -176 -21 -247 -11 -350 8 -87 13 -119 27 -167 6 -24 12 -47 13 -53 3
-19 28 -80 62 -152 43 -90 131 -208 221 -296 l70 -68 312 251 c412 329 400
319 381 333 -70 54 -155 210 -186 342 -10 42 -12 375 -2 403 4 12 10 33 12 45
2 12 9 40 14 62 6 22 13 51 16 65 3 14 7 34 10 45 35 157 69 305 72 325 3 14
10 43 16 65 6 22 12 47 13 55 2 8 4 15 5 15 1 0 4 11 6 25 7 41 54 171 80 221
45 89 115 149 194 165 65 13 222 8 282 -9 66 -20 117 -71 138 -139 13 -43 22
-235 12 -252 -3 -5 -7 -21 -8 -35 -9 -67 -13 -94 -33 -202 -11 -64 -23 -134
-27 -155 -8 -48 -12 -69 -14 -69 -1 0 -3 -9 -4 -20 -1 -11 -6 -38 -11 -60 -4
-22 -9 -47 -10 -55 -1 -8 -7 -40 -13 -70 -12 -56 -20 -104 -27 -150 -2 -14
-10 -56 -19 -95 -8 -38 -17 -88 -20 -111 -4 -22 -11 -55 -16 -72 -4 -18 -5
-33 -2 -36 4 -2 200 -3 437 -2 l429 1 8 35 c4 19 9 51 12 70 3 19 7 47 10 61
3 14 8 41 10 60 3 19 6 34 7 34 1 0 3 9 4 20 1 11 5 38 9 60 4 22 9 56 12 75
8 52 12 75 14 75 1 0 3 14 5 30 2 17 7 46 11 65 4 19 8 42 9 50 3 19 13 80 25
150 5 30 12 71 15 90 3 19 17 94 30 165 14 72 26 139 28 150 1 11 7 26 11 34
7 11 6 12 -5 6 -11 -7 -12 -6 -2 6 14 17 13 190 -1 220 -4 10 -6 23 -5 30 2
12 -1 39 -16 120 -11 59 -51 165 -86 229 -111 198 -348 340 -629 376 -30 3
-66 9 -80 11 -29 5 -387 12 -392 8z"/>
<path d="M5111 5954 c0 -11 3 -14 6 -6 3 7 2 16 -1 19 -3 4 -6 -2 -5 -13z"/>
<path d="M3975 3812 c-17 -15 -48 -40 -69 -57 -21 -16 -46 -37 -56 -45 -10 -8
-35 -28 -56 -45 -118 -93 -411 -331 -422 -342 -8 -7 -22 -18 -33 -23 -10 -6
-19 -15 -19 -19 0 -5 26 -28 58 -52 59 -44 210 -193 250 -247 32 -43 97 -187
111 -245 20 -85 35 -267 21 -267 -3 0 -5 -17 -4 -37 0 -21 -3 -54 -7 -73 -4
-19 -6 -36 -4 -38 8 -8 848 -3 855 5 8 8 16 42 25 113 3 19 8 49 12 65 11 48
12 56 19 130 14 139 4 392 -16 445 -1 3 -2 8 -1 12 1 7 -26 104 -38 133 -24
63 -90 188 -125 235 -47 65 -178 200 -195 200 -6 0 -11 4 -11 8 0 15 -232 172
-253 172 -7 0 -26 -13 -42 -28z"/>
<path d="M2110 2625 c-5 -27 -12 -67 -16 -89 -3 -21 -8 -48 -10 -60 -2 -11 -7
-34 -9 -51 -3 -16 -10 -55 -15 -85 -6 -30 -12 -68 -15 -85 -3 -16 -8 -46 -11
-65 -4 -19 -8 -44 -10 -55 -1 -11 -5 -31 -8 -45 -4 -14 -8 -43 -10 -65 -3 -22
-7 -47 -10 -55 -3 -8 -7 -31 -10 -50 -3 -19 -8 -46 -10 -60 -5 -29 -17 -95
-21 -125 -2 -11 -5 -31 -8 -45 -13 -64 -29 -158 -33 -185 -5 -39 -14 -101 -21
-145 -8 -55 -9 -309 -1 -365 18 -120 62 -251 110 -323 15 -24 28 -45 28 -47 0
-7 38 -50 84 -98 86 -87 287 -192 411 -213 16 -3 46 -9 65 -14 19 -5 58 -11
85 -15 28 -4 66 -9 85 -12 52 -9 347 -9 410 0 30 4 71 10 90 12 19 2 53 7 75
11 22 4 49 8 60 10 27 4 193 50 225 62 14 5 30 11 35 12 6 1 53 24 105 50 159
80 303 198 407 335 21 28 41 51 46 53 4 2 7 8 7 13 0 6 16 35 35 65 19 30 35
56 35 58 0 3 15 37 34 78 18 40 43 105 55 143 13 39 25 77 28 85 4 8 7 17 8
20 4 13 16 68 20 88 2 13 7 32 10 42 3 10 8 34 10 54 3 20 9 54 14 76 5 22 6
42 2 44 -3 2 -198 4 -433 4 -307 -1 -428 -4 -429 -12 0 -6 -2 -18 -4 -26 -2
-8 -7 -28 -10 -45 -3 -16 -13 -55 -22 -85 -9 -30 -17 -61 -19 -68 -1 -8 -6
-21 -10 -30 -4 -9 -8 -21 -9 -27 -6 -24 -51 -113 -77 -153 -53 -78 -106 -122
-179 -147 -61 -22 -93 -26 -194 -26 -102 -1 -175 13 -220 41 -35 22 -66 56
-58 64 4 3 2 6 -3 6 -6 0 -15 15 -22 33 -40 113 -33 292 22 563 5 26 17 92 20
119 2 11 6 34 9 50 4 17 9 44 12 60 3 17 7 41 10 55 5 25 16 90 21 125 1 11 3
20 4 20 1 0 3 16 6 35 2 19 11 69 19 110 9 41 17 89 20 105 2 17 6 41 9 55 3
14 9 45 12 70 3 25 8 48 11 53 4 7 12 64 16 117 l2 25 -427 0 -428 0 -10 -50z"/>
<path d="M3727 2072 c-31 -4 -33 -7 -42 -72 -4 -25 -8 -54 -11 -65 -2 -11 -6
-38 -10 -61 l-6 -40 431 0 c298 0 431 3 432 10 1 13 5 37 15 86 4 19 8 44 10
55 1 11 5 36 8 55 l6 35 -402 0 c-222 0 -416 -1 -431 -3z"/>
</g>
</svg>
